<svg id="icons_Q2" data-name="icons Q2" xmlns="http://www.w3.org/2000/svg" width="20.107" height="19.959" viewBox="0 0 20.107 19.959">
  <path id="Path_1966" data-name="Path 1966" d="M17.16,15.96a7.375,7.375,0,0,0,1.492-5.427,7.562,7.562,0,0,0-6.861-6.572A7.48,7.48,0,0,0,10.3,18.847,7.6,7.6,0,0,0,15.768,17.4l6.215,6.173a.944.944,0,0,0,1.392,0h0a.947.947,0,0,0,0-1.394Zm-5.022.9a5.473,5.473,0,0,1-6.265-6.372,5.475,5.475,0,0,1,9.242-2.932,5.431,5.431,0,0,1,1.5,4.824,5.522,5.522,0,0,1-4.475,4.481Z" transform="translate(-3.574 -3.924)" fill="#181819"/>
</svg>
